<svg xmlns="http://www.w3.org/2000/svg" width="207.425" height="30.976"><path d="M47.031 22.446h3.8a4.493 4.493 0 013.243.953 4.261 4.261 0 01.992 3.038 4.2 4.2 0 01-1.137 3.193 4.674 4.674 0 01-3.5 1.155h-3.4zm4.854 6.779a17.657 17.657 0 00.169-2.609c0-1.775-.169-2.287-.412-2.526a1.341 1.341 0 00-.968-.274 4.857 4.857 0 00-.811.072v5.242a3.543 3.543 0 001.222.191 2.871 2.871 0 00.8-.096zm6.598-6.779h2.832v8.34h-2.832zm9.332 8.53a10.938 10.938 0 01-2.553-.31l-.557-2.68.1-.06a6.7 6.7 0 004.115 1.346c.254 0 .472-.011.593-.024a1.469 1.469 0 00.036-.321c0-.429-.169-.643-1.077-.834l-1.016-.215c-1.719-.357-2.7-1.25-2.7-2.7a2.59 2.59 0 01.762-1.918 4.379 4.379 0 013.208-.989 9.3 9.3 0 012.009.238l.641 2.657-.1.059a5.577 5.577 0 00-3.534-1.263c-.23 0-.46.012-.557.024a1.279 1.279 0 00-.061.393c0 .346.146.548.932.715l.956.2c2.033.429 2.892 1.239 2.892 2.717a2.565 2.565 0 01-.726 1.918 4.687 4.687 0 01-3.363 1.047zm11.705-7.017v6.826h-2.832v-6.826h-.363l-2.07.476-.049-.071.387-2.1 1.15.179h5.2l1.126-.179.049.071-.387 2.085-1.973-.464zm8.911 4.039l-.629-.131v2.919H84.97v-8.34h4.6c1.755 0 2.566.965 2.566 2.192a3.034 3.034 0 01-1.319 2.359l2.045 3.729v.059h-3.208zm-.629-4.086v2.549l1.271-.131a4.661 4.661 0 00.23-1.287c0-.822-.412-1.168-1.053-1.168a3.108 3.108 0 00-.449.036zm8.146-1.466h2.832v8.34h-2.832zm6.585 0h4.7c1.658 0 2.312.834 2.312 1.74a2.087 2.087 0 01-1.2 1.8 2.25 2.25 0 011.658 2.192 2.194 2.194 0 01-.666 1.62c-.678.668-1.707.989-3.764.989h-3.038zm2.832 1.465v2.05l1.149-.108a3.009 3.009 0 00.218-1.036c0-.583-.254-.941-.9-.941a3.436 3.436 0 00-.467.035zm1.513 5.337a3.881 3.881 0 00.1-.893c0-.631-.182-1.048-.86-1.1l-.75-.059v1.99a2.48 2.48 0 00.847.131 2.629 2.629 0 00.663-.068zm11.705-4.538l-.459-2.085v-.179h2.7l-.267 2.442v2.859a2.949 2.949 0 01-.811 2.228 3.966 3.966 0 01-2.869.989 4.24 4.24 0 01-2.917-.953 3.385 3.385 0 01-.811-2.562v-5h2.893v5.421a1.783 1.783 0 00.351 1.31 1.518 1.518 0 001.1.3 4.875 4.875 0 001.028-.095 13.624 13.624 0 00.061-1.454zm10.13-.751v6.826h-2.832v-6.826h-.363l-2.069.476-.049-.071.387-2.1 1.149.179h5.2l1.125-.179.049.071-.387 2.085-1.973-.464zm5.572-1.513h2.832v8.34h-2.832zm10.688 8.518a4.593 4.593 0 01-3.316-1.12 5.188 5.188 0 01.012-6.469 5.482 5.482 0 016.608 0 5.21 5.21 0 010 6.469 4.543 4.543 0 01-3.304 1.12zm.206-1.513a6.526 6.526 0 00.992-.084 23.207 23.207 0 00.146-2.633c0-1.668-.121-2.323-.448-2.645a1.511 1.511 0 00-1.114-.309 6.535 6.535 0 00-.992.083 23.393 23.393 0 00-.145 2.633c0 1.632.133 2.335.46 2.657a1.5 1.5 0 001.101.298zm9.321-3.609l.109 3.693.351 1.192v.059h-2.339l.193-7.386-.52-.894v-.059h2.977l3.243 3.967-.072-2.716-.351-1.192v-.059h2.3l-.182 8.3-1.549.1zM0 8.688a8.249 8.249 0 01.869-3.884 7.624 7.624 0 012.35-2.708A10.517 10.517 0 016.669.518 16.375 16.375 0 0110.851 0a16 16 0 012.547.185 17.314 17.314 0 012.051.449 12.326 12.326 0 011.6.576q.69.31 1.174.541l-1.2 4.217h-.253a5.362 5.362 0 00-1.429-1.371 7.515 7.515 0 00-1.659-.806 8.525 8.525 0 00-1.7-.391 13.022 13.022 0 00-1.567-.1 10.717 10.717 0 00-2.466.276 6.033 6.033 0 00-2.074.9 4.468 4.468 0 00-1.428 1.636 5.376 5.376 0 00-.53 2.512 4.858 4.858 0 001.637 3.964 7.5 7.5 0 004.885 1.359 13.107 13.107 0 001.405-.068 8.955 8.955 0 001.175-.2 7.287 7.287 0 001.048-.34q.5-.2 1.025-.476v-2h-1.071a15.44 15.44 0 00-1.637.1q-.911.1-1.889.284a9.648 9.648 0 00-1.785.505l-.185-.2 2.235-4.024h8.109v.288a4.09 4.09 0 00-.461 1.426 10.752 10.752 0 00-.138 1.68 10.373 10.373 0 00.161 1.76 6.537 6.537 0 00.507 1.668v.276a9.917 9.917 0 01-1.6 1.014 12.778 12.778 0 01-2.074.841 17.242 17.242 0 01-2.431.565 16.692 16.692 0 01-2.649.208 14.305 14.305 0 01-3.952-.53 9.6 9.6 0 01-3.238-1.589 7.6 7.6 0 01-2.188-2.673A8.3 8.3 0 010 8.688zm30.669-1.937h.276a1.741 1.741 0 00.726.218q.4.035.818.035h2.189a2.856 2.856 0 001.659-.461 1.523 1.523 0 00.668-1.337 1.368 1.368 0 00-.554-1.141 3.124 3.124 0 00-1.866-.426h-7.12v8.3q0 .6.012 1.313a13.754 13.754 0 00.092 1.405 7.741 7.741 0 00.242 1.256 1.625 1.625 0 00.461.819v.276h-5.715v-.276a1.878 1.878 0 00.507-.933 8.673 8.673 0 00.265-1.406c.054-.5.084-.976.092-1.428s.011-.8.011-1.025V3.594c0-.23 0-.484-.011-.76a5.268 5.268 0 00-.092-.842 3.426 3.426 0 00-.265-.818 1.983 1.983 0 00-.507-.668V.229h11.821a10.672 10.672 0 012.661.311 6.39 6.39 0 012.085.922 4.239 4.239 0 011.36 1.544 5.118 5.118 0 01.138 4.021 4.2 4.2 0 01-.957 1.394 5.441 5.441 0 01-1.463.991 9.152 9.152 0 01-1.843.634l-.046.069 1.153 1.636q.391.553.945 1.233t1.152 1.337q.6.656 1.186 1.232a7.549 7.549 0 001.072.9v.277a3.483 3.483 0 01-1.049.53 4.522 4.522 0 01-1.279.161 5.621 5.621 0 01-1.705-.241 5.416 5.416 0 01-1.394-.669 6.638 6.638 0 01-1.186-1.025 12.241 12.241 0 01-1.037-1.29l-2.65-3.756h-2.789l-.092-.23zm28.549 10.254H44.609v-.276a1.925 1.925 0 00.472-.933 9.518 9.518 0 00.253-1.4q.081-.749.092-1.428t.011-1.025v-8.34c0-.23 0-.483-.011-.76a5.25 5.25 0 00-.092-.84 3.747 3.747 0 00-.253-.817 2 2 0 00-.472-.668V.23h14.839L60.6 4.466l-.23.181a3.485 3.485 0 00-1.048-.54 9.9 9.9 0 00-1.405-.352 9.34 9.34 0 00-1.65-.137h-6.866v3.5h10l.115.231-1.982 3.649h-.3a1.933 1.933 0 00-.622-.327 5.882 5.882 0 00-.864-.219 5.664 5.664 0 00-.99-.085H49.4v3.272h5.507q1.083 0 2.247-.108t2.27-.31a10.127 10.127 0 001.89-.513l.184.184zm19.656 0H64.265v-.276a1.926 1.926 0 00.472-.933 9.522 9.522 0 00.253-1.4c.053-.5.085-.975.092-1.428s.011-.794.011-1.025v-8.34c0-.23 0-.483-.011-.76a5.328 5.328 0 00-.092-.84 3.748 3.748 0 00-.253-.817 2 2 0 00-.472-.668V.23h14.839l1.152 4.236-.23.181a3.485 3.485 0 00-1.048-.54 9.9 9.9 0 00-1.405-.352 9.34 9.34 0 00-1.648-.138h-6.867v3.5h10l.115.231-1.982 3.649h-.3a1.93 1.93 0 00-.623-.327 5.852 5.852 0 00-.864-.219 5.666 5.666 0 00-.991-.085h-5.358v3.272h5.507q1.083 0 2.247-.108t2.27-.31a10.126 10.126 0 001.89-.513l.184.184zm23.365-5.069c0 .23 0 .573.011 1.025s.038.925.092 1.417a10.822 10.822 0 00.246 1.398 2.02 2.02 0 00.461.957v.276h-4.931v-.276a2.218 2.218 0 00-.184-.887 4.24 4.24 0 00-.461-.806 5.3 5.3 0 00-.611-.7q-.334-.323-.61-.6l-7.811-7.4h-.092v5.6c0 .23 0 .573.012 1.025s.038.93.092 1.428a9.583 9.583 0 00.253 1.406 1.818 1.818 0 00.5.933v.276h-5.392v-.276a1.86 1.86 0 00.46-.933 9.541 9.541 0 00.231-1.406c.046-.5.073-.976.081-1.428s.011-.8.011-1.025V3.594q0-.346-.011-.76a6.473 6.473 0 00-.081-.842 3.678 3.678 0 00-.231-.818 1.856 1.856 0 00-.46-.668V.229h5.369v.277a2.094 2.094 0 00.23.944 5.222 5.222 0 00.554.876 6.415 6.415 0 00.679.749 6.606 6.606 0 00.611.518l7.143 6.659h.092V3.576c0-.23 0-.484-.011-.761a5.041 5.041 0 00-.092-.829 3.834 3.834 0 00-.253-.806 1.993 1.993 0 00-.473-.668V.235h5.425v.277a1.853 1.853 0 00-.5.668 3.762 3.762 0 00-.253.818 5.194 5.194 0 00-.092.842c-.008.276-.011.53-.011.76zm28.205 5.069h-14.542v-.276a1.929 1.929 0 00.472-.933 9.574 9.574 0 00.253-1.406c.053-.5.084-.976.092-1.428s.011-.8.011-1.025V3.594c0-.23 0-.484-.011-.76a5.426 5.426 0 00-.092-.842 3.762 3.762 0 00-.253-.818 1.992 1.992 0 00-.472-.668V.229h5.715v.277a1.841 1.841 0 00-.53.663 3.767 3.767 0 00-.277.813 4.5 4.5 0 00-.1.835q-.012.411-.012.755v9.904h6.8a13.769 13.769 0 001.878-.128q.933-.128 1.785-.308a7.162 7.162 0 001.475-.462l.162.184zm9.606-5.069q0 .346.011 1.025a12.061 12.061 0 00.116 1.428 7.861 7.861 0 00.323 1.406 1.789 1.789 0 00.61.933v.276h-6.083v-.276a1.793 1.793 0 00.61-.933 7.858 7.858 0 00.323-1.406 11.922 11.922 0 00.115-1.428q.011-.679.011-1.025V3.594q0-.346-.011-.76a4.036 4.036 0 00-.115-.842 3.252 3.252 0 00-.323-.818 2.019 2.019 0 00-.61-.668V.229h6.083v.277a2.011 2.011 0 00-.61.668 3.253 3.253 0 00-.323.818 4.081 4.081 0 00-.116.842q-.011.414-.011.76zm4.816-3.248a8.249 8.249 0 01.864-3.883 7.624 7.624 0 012.35-2.708 10.517 10.517 0 013.456-1.579A16.379 16.379 0 01155.719 0a16 16 0 012.547.185 17.284 17.284 0 012.051.449 12.287 12.287 0 011.6.576q.69.31 1.174.541l-1.2 4.217h-.253a5.362 5.362 0 00-1.429-1.371 7.5 7.5 0 00-1.659-.806 8.516 8.516 0 00-1.7-.391 13.022 13.022 0 00-1.567-.1 10.717 10.717 0 00-2.466.276 6.024 6.024 0 00-2.073.9 4.463 4.463 0 00-1.429 1.636 5.376 5.376 0 00-.53 2.512 4.858 4.858 0 001.637 3.964 7.5 7.5 0 004.885 1.359 13.1 13.1 0 001.405-.068 8.955 8.955 0 001.175-.2 7.287 7.287 0 001.048-.34c.331-.136.672-.294 1.025-.476v-2h-1.071a15.428 15.428 0 00-1.636.1q-.912.1-1.889.284a9.656 9.656 0 00-1.786.505l-.185-.2 2.235-4.024h8.111v.288a4.091 4.091 0 00-.461 1.426 10.755 10.755 0 00-.138 1.68 10.375 10.375 0 00.161 1.76 6.536 6.536 0 00.507 1.668v.276a9.957 9.957 0 01-1.6 1.014 12.754 12.754 0 01-2.074.841 17.221 17.221 0 01-2.431.565 16.692 16.692 0 01-2.649.208 14.309 14.309 0 01-3.952-.53 9.6 9.6 0 01-3.237-1.589 7.59 7.59 0 01-2.188-2.673 8.287 8.287 0 01-.811-3.774zm37.121-1.937V3.594q0-.346-.012-.76a4.623 4.623 0 00-.1-.842 3.825 3.825 0 00-.277-.818 1.851 1.851 0 00-.53-.668V.229h5.761v.277a1.976 1.976 0 00-.507.668 3.423 3.423 0 00-.265.818 5.349 5.349 0 00-.092.842q-.011.414-.011.76v8.342q0 .346.011 1.025c.008.453.038.93.092 1.428a8.671 8.671 0 00.265 1.406 1.873 1.873 0 00.507.933v.276h-5.761v-.276a1.771 1.771 0 00.53-.933 9.533 9.533 0 00.277-1.406 13.731 13.731 0 00.1-1.428q.012-.679.012-1.025v-1.452h-9.562v1.452q0 .346.011 1.025a13.378 13.378 0 00.1 1.428 10.637 10.637 0 00.265 1.406 1.716 1.716 0 00.519.933v.276h-5.78v-.276a1.78 1.78 0 00.53-.933 9.626 9.626 0 00.276-1.406 13.738 13.738 0 00.1-1.428q.011-.679.011-1.025V3.594q0-.346-.011-.76a4.625 4.625 0 00-.1-.842 3.862 3.862 0 00-.276-.818 1.865 1.865 0 00-.53-.668V.229h5.784v.277a1.745 1.745 0 00-.519.668 4.25 4.25 0 00-.265.818 4.509 4.509 0 00-.1.842c-.008.276-.011.53-.011.76v3.157zM191.065 0h.3l1.843.23h12.12l1.843-.23.254.23-2.4 4.424h-.3a1.491 1.491 0 00-.783-.726 3.962 3.962 0 00-1.614-.265h-2.488v8.272q0 .346.011 1.025a13.745 13.745 0 00.1 1.428 8.505 8.505 0 00.288 1.406 1.833 1.833 0 00.542.933v.276h-5.876v-.276a1.758 1.758 0 00.565-.933 8.649 8.649 0 00.288-1.406 13.721 13.721 0 00.1-1.428q.011-.679.011-1.025V3.664h-1.451a14.879 14.879 0 00-3.042.265 7.5 7.5 0 00-2.074.726l-.254-.185z" fill="#84bb56"/></svg>